<svg xmlns="http://www.w3.org/2000/svg" xmlns:xlink="http://www.w3.org/1999/xlink" width="178" zoomAndPan="magnify" viewBox="0 0 133.5 30.000001" height="40" preserveAspectRatio="xMidYMid meet" version="1.0"><defs><g/><clipPath id="efa63346ea"><path d="M 1.910156 0 L 131.105469 0 L 131.105469 29.03125 L 1.910156 29.03125 Z M 1.910156 0 " clip-rule="nonzero"/></clipPath><clipPath id="410cf831db"><path d="M 19 3 L 131.105469 3 L 131.105469 28 L 19 28 Z M 19 3 " clip-rule="nonzero"/></clipPath><clipPath id="fcf6386e3a"><path d="M 7.226562 6.1875 L 22 6.1875 L 22 25 L 7.226562 25 Z M 7.226562 6.1875 " clip-rule="nonzero"/></clipPath><clipPath id="762f0424eb"><path d="M 9 6.1875 L 25.375 6.1875 L 25.375 22 L 9 22 Z M 9 6.1875 " clip-rule="nonzero"/></clipPath></defs><g clip-path="url(#efa63346ea)"><path fill="#ffffff" d="M 1.910156 0 L 131.105469 0 L 131.105469 29.03125 L 1.910156 29.03125 Z M 1.910156 0 " fill-opacity="1" fill-rule="nonzero"/><path fill="#ffffff" d="M 1.910156 0 L 131.105469 0 L 131.105469 29.03125 L 1.910156 29.03125 Z M 1.910156 0 " fill-opacity="1" fill-rule="nonzero"/></g><g clip-path="url(#410cf831db)"><path stroke-linecap="butt" transform="matrix(0.725806, 0, 0, 0.725806, 11.338848, 7.620969)" fill="none" stroke-linejoin="miter" d="M 35.199288 11.678992 C 35.086267 11.393749 34.79026 11.178471 34.505017 11.140797 C 32.605191 10.909374 30.678455 12.044964 29.149983 13.035242 C 28.956233 13.153645 28.762483 13.266665 28.59026 13.401214 C 28.014392 13.228992 27.416997 13.132117 26.889566 13.013714 C 25.619427 12.685415 24.300851 12.416318 23.046858 12.044964 C 22.234184 11.81354 21.077066 11.447568 20.72724 10.597221 C 20.242864 9.402429 21.324635 8.202256 22.115781 7.427256 C 23.875677 5.731943 26.060746 4.47795 28.418038 3.762152 C 29.05849 3.568402 29.693559 3.412325 30.350156 3.31545 C 30.926024 3.218575 31.991649 2.949478 32.357622 3.568402 C 33.132622 4.822395 31.991649 6.367013 31.275851 7.314235 C 30.963698 7.723263 31.894774 8.589756 32.163872 8.223783 C 32.917344 7.195832 33.751545 6.060242 33.595469 4.709374 C 33.482448 3.686804 32.820469 2.658853 31.797899 2.314408 C 30.640781 1.905381 29.096163 2.368228 27.949809 2.680381 C 26.658142 3.067881 25.404149 3.584547 24.225503 4.2842 C 23.084531 4.940797 22.024288 5.748089 21.077066 6.679165 C 20.226719 7.529513 19.435573 8.627429 19.629323 9.886804 C 20.049114 12.340971 23.009184 12.97604 25.000503 13.455034 C 25.866996 13.670311 26.73349 13.880207 27.605365 14.095485 C 27.298594 14.33229 27.007969 14.563714 26.695816 14.811284 C 25.942344 15.446353 25.054323 16.167534 25.054323 17.243922 C 25.075851 17.631422 25.554844 18.09427 25.942344 17.997395 C 27.104844 17.771353 28.208142 17.26545 29.17151 16.571179 C 29.962656 15.989929 30.834531 15.214929 30.043385 14.267707 C 29.978802 14.19236 29.903455 14.117013 29.849635 14.057811 C 29.903455 14.020138 29.978802 13.960936 30.043385 13.923263 C 31.453455 13.013714 33.288698 11.953471 35.021684 12.184895 C 35.333837 12.222568 35.296163 11.835068 35.199288 11.678992 Z M 29.187656 14.886631 C 28.439566 15.623957 27.567691 16.205207 26.604323 16.587325 C 26.948767 16.183679 27.416997 15.855381 27.761441 15.564756 C 28.224288 15.198784 28.687135 14.848957 29.17151 14.499131 C 29.478281 14.617534 29.402934 14.655207 29.187656 14.886631 Z M 47.943733 5.269096 C 47.943733 5.269096 47.943733 5.25295 47.943733 5.25295 C 47.943733 5.25295 47.943733 5.25295 47.922205 5.25295 C 47.749983 5.172221 47.577761 5.172221 47.480886 5.344443 C 45.338872 9.014929 42.341129 12.184895 38.821337 14.563714 C 38.977413 14.230034 39.155017 13.880207 39.32724 13.55729 C 39.752413 12.766145 40.177587 11.969617 40.602761 11.199999 C 41.453108 9.633853 42.281927 8.046179 42.841649 6.367013 C 43.056927 5.69427 43.439045 4.784721 43.266823 4.068922 C 43.132274 3.412325 42.491823 2.890277 41.797552 2.965624 C 41.108663 3.067881 40.409011 3.584547 39.82776 3.972047 C 39.13349 4.413367 38.49842 4.940797 37.901024 5.50052 C 37.217517 6.157117 36.603976 6.894443 36.103455 7.685589 C 35.597552 8.417533 35.290781 9.224825 35.715955 10.059027 C 35.845122 10.29045 36.141129 10.618749 36.426372 10.581075 C 36.700851 10.559547 36.722379 10.311978 36.603976 10.080554 C 36.178802 9.262499 37.319774 8.073089 37.798767 7.470311 C 38.380017 6.77604 39.036615 6.119443 39.752413 5.554339 C 40.446684 5.016145 41.184011 4.515624 41.991302 4.14427 C 42.066649 4.106596 42.168906 4.068922 42.244254 4.031249 C 42.20658 4.262672 42.168906 4.47795 42.109705 4.687846 C 41.991302 5.134547 41.856754 5.575867 41.722205 6.00104 C 41.065608 7.79861 40.139913 9.483159 39.230365 11.162325 C 38.74599 12.028818 38.283142 12.900693 37.836441 13.80486 C 37.491997 14.499131 37.163698 15.214929 37.707274 15.914582 C 37.820295 16.065277 38.207795 16.431249 38.439219 16.2967 C 40.85033 14.811284 43.035399 12.997568 44.908316 10.930902 C 44.660747 11.549825 44.391649 12.163367 44.138698 12.803818 C 43.735052 13.826388 43.266823 14.945832 43.245295 16.049131 C 43.245295 16.431249 43.326024 16.802603 43.460573 17.152429 C 43.557448 17.421527 43.788872 17.728297 44.095642 17.787499 C 44.332448 17.825172 44.563872 17.70677 44.445469 17.437672 C 44.122552 16.549652 44.391649 15.602429 44.736094 14.601388 C 45.742517 11.678992 47.174115 8.880381 48.481927 6.08177 C 48.621858 5.823436 48.288177 5.403645 47.943733 5.269096 Z M 62.448073 6.27552 C 62.157448 9.014929 61.00033 11.89427 59.009011 13.864061 C 58.756059 14.117013 58.449288 14.267707 58.153281 14.499131 C 58.153281 14.499131 58.153281 14.52604 58.137136 14.542186 C 58.137136 14.52604 58.137136 14.499131 58.137136 14.461457 C 58.137136 14.348436 58.137136 14.230034 58.153281 14.117013 C 58.196337 13.476561 58.271684 12.819964 58.347031 12.184895 C 58.503108 10.828645 58.718386 9.483159 59.122031 8.164582 C 59.278108 7.879339 58.799115 7.335763 58.427761 7.298089 C 58.293212 7.255033 58.180191 7.298089 58.115608 7.427256 C 57.195295 9.171006 56.12967 10.828645 54.972552 12.39479 C 54.391302 13.16979 53.793906 13.923263 53.153455 14.655207 C 52.884358 14.96736 52.593733 15.317186 52.28158 15.602429 C 52.437656 15.021179 52.652934 14.445311 52.884358 13.880207 C 53.309531 12.841492 53.734705 11.797395 54.159879 10.753297 C 54.60658 9.693054 55.026372 8.627429 55.473073 7.583332 C 55.704497 7.02361 55.93592 6.46927 56.151198 5.88802 C 56.32342 5.50052 56.495643 5.11302 56.457969 4.6717 C 56.382622 3.972047 55.74217 3.261631 55.010226 3.31545 C 54.21908 3.374652 53.309531 4.106596 52.690608 4.569443 C 51.296684 5.635068 49.773594 7.255033 49.988872 9.149478 C 50.005018 9.440103 50.236441 9.730728 50.505538 9.843749 C 50.677761 9.946006 51.049115 9.983679 51.011441 9.671527 C 50.817691 8.008506 52.168559 6.619964 53.368733 5.656596 C 53.653976 5.403645 53.987656 5.188367 54.294427 4.978471 C 54.644254 4.763193 55.064045 4.628645 55.376198 4.397221 C 55.397726 4.397221 55.413872 4.397221 55.4354 4.397221 C 55.413872 4.413367 55.413872 4.434895 55.413872 4.456422 C 55.397726 4.628645 55.316997 4.784721 55.24165 4.956943 C 55.064045 5.403645 54.875677 5.866492 54.681927 6.329339 C 53.987656 8.046179 53.271858 9.768402 52.556059 11.490624 C 51.89408 13.110589 51.102934 14.735936 51.049115 16.49045 C 51.027587 16.856422 51.555018 17.362325 51.915608 17.243922 C 52.771337 17.012499 53.347205 16.339756 53.923073 15.699304 C 54.60658 14.929686 55.24165 14.117013 55.860573 13.282811 C 56.398768 12.572395 56.899288 11.835068 57.389045 11.086978 C 57.324462 11.528297 57.286788 11.969617 57.232969 12.39479 C 57.173768 13.089061 57.001545 13.864061 57.232969 14.542186 C 57.442865 15.123436 58.040261 15.699304 58.718386 15.564756 C 59.471858 15.392534 60.106927 14.57986 60.569775 13.99861 C 61.091823 13.325867 61.576198 12.58854 61.963698 11.835068 C 62.7979 10.252777 63.276893 8.552082 63.470643 6.792186 C 63.529844 6.367013 62.52342 5.656596 62.448073 6.27552 Z M 83.69599 11.797395 C 83.658316 11.512152 83.324636 11.237672 83.077066 11.162325 C 82.242865 10.909374 81.3979 10.790971 80.542171 10.753297 C 80.698247 10.387325 80.870469 10.021353 81.026546 9.671527 C 81.59165 8.476735 82.167518 7.314235 82.705712 6.135589 C 83.190087 5.096874 84.024289 3.837499 83.539914 2.680381 C 83.443039 2.448957 83.039393 2.061457 82.72724 2.174478 C 80.967344 2.890277 79.444254 4.181943 78.012657 5.441318 C 76.640261 6.66302 75.327066 7.970832 74.126893 9.364756 C 73.551025 10.021353 73.007448 10.699478 72.4854 11.393749 C 69.955886 11.872742 67.464045 12.626214 65.090608 13.632638 C 64.584705 13.842534 65.397379 14.811284 65.822552 14.639061 C 67.657795 13.864061 69.55224 13.228992 71.484358 12.766145 C 70.187309 14.639061 69.046337 16.624999 68.082969 18.713193 C 67.889219 19.116839 68.836441 19.929513 69.067865 19.428992 C 70.246511 16.937152 71.65658 14.57986 73.314219 12.378645 C 73.664045 12.303297 74.013872 12.238714 74.385226 12.184895 C 75.832969 11.953471 77.318386 11.81354 78.787657 11.775867 C 78.400157 12.78229 78.034184 13.80486 77.781233 14.848957 C 77.528282 15.871527 77.490608 16.974825 78.669254 17.399999 C 78.938351 17.496874 79.056754 17.26545 79.01908 17.034027 C 78.981407 16.818749 78.809184 16.646527 78.63158 16.533506 C 78.63158 16.49045 78.615434 16.468922 78.615434 16.431249 C 78.653108 16.339756 78.63158 16.183679 78.653108 16.086804 C 78.706927 15.780034 78.809184 15.484027 78.884532 15.198784 C 79.056754 14.563714 79.250504 13.94479 79.4604 13.342013 C 79.65415 12.803818 79.869427 12.276388 80.100851 11.738193 C 81.20415 11.738193 82.302066 11.81354 83.346164 12.147221 C 83.620643 12.238714 83.749809 12.028818 83.69599 11.797395 Z M 79.228976 10.715624 C 79.01908 10.737152 78.809184 10.737152 78.615434 10.737152 C 77.183837 10.774825 75.757622 10.893228 74.320643 11.086978 C 74.557448 10.812499 74.788872 10.521874 75.020296 10.252777 C 76.177414 8.901908 77.436789 7.642533 78.771511 6.46927 C 79.923247 5.441318 81.123421 4.397221 82.474289 3.649131 C 82.436615 3.740624 82.398941 3.815971 82.377414 3.8967 C 82.226719 4.246527 82.070643 4.590971 81.914566 4.91927 C 81.645469 5.554339 81.354844 6.173263 81.064219 6.792186 C 80.42915 8.110763 79.79408 9.402429 79.228976 10.715624 Z M 108.372206 11.678992 C 108.259185 11.393749 107.96856 11.178471 107.677935 11.140797 C 105.78349 10.909374 103.851372 12.044964 102.328282 13.035242 C 102.134532 13.153645 101.940782 13.266665 101.763178 13.401214 C 101.18731 13.228992 100.589914 13.132117 100.067865 13.013714 C 98.792344 12.685415 97.47915 12.416318 96.219775 12.044964 C 95.412483 11.81354 94.249983 11.447568 93.900157 10.597221 C 93.421164 9.402429 94.502935 8.202256 95.29408 7.427256 C 97.053976 5.731943 99.233664 4.47795 101.596337 3.762152 C 102.231407 3.568402 102.866476 3.412325 103.523074 3.31545 C 104.104324 3.218575 105.164567 2.949478 105.530539 3.568402 C 106.305539 4.822395 105.164567 6.367013 104.45415 7.314235 C 104.141997 7.723263 105.073074 8.589756 105.342171 8.223783 C 106.095643 7.195832 106.924462 6.060242 106.768386 4.709374 C 106.655365 3.686804 105.993386 2.658853 104.970817 2.314408 C 103.813699 1.905381 102.26908 2.368228 101.128108 2.680381 C 99.836442 3.067881 98.582448 3.584547 97.403803 4.2842 C 96.257448 4.940797 95.197205 5.748089 94.249983 6.679165 C 93.399636 7.529513 92.60849 8.627429 92.80224 9.886804 C 93.227414 12.340971 96.182101 12.97604 98.173421 13.455034 C 99.045296 13.670311 99.911789 13.880207 100.783664 14.095485 C 100.471511 14.33229 100.186268 14.563714 99.874115 14.811284 C 99.120643 15.446353 98.232622 16.167534 98.232622 17.243922 C 98.248768 17.631422 98.733143 18.09427 99.120643 17.997395 C 100.277761 17.771353 101.38106 17.26545 102.344428 16.571179 C 103.135574 15.989929 104.007449 15.214929 103.216303 14.267707 C 103.157101 14.19236 103.081754 14.117013 103.022553 14.057811 C 103.081754 14.020138 103.157101 13.960936 103.216303 13.923263 C 104.626372 13.013714 106.461615 11.953471 108.199983 12.184895 C 108.506754 12.222568 108.469081 11.835068 108.372206 11.678992 Z M 102.365955 14.886631 C 101.612483 15.623957 100.740608 16.205207 99.77724 16.587325 C 100.121685 16.183679 100.589914 15.855381 100.934358 15.564756 C 101.402587 15.198784 101.865435 14.848957 102.344428 14.499131 C 102.65658 14.617534 102.575851 14.655207 102.365955 14.886631 Z M 115.729324 14.639061 C 114.609879 15.392534 113.350504 15.914582 112.015782 16.167534 C 111.499115 16.259027 110.955539 16.2967 110.43349 16.167534 C 109.798421 16.011457 109.620817 15.586284 109.760747 14.945832 C 110.029844 13.75104 110.82099 12.572395 111.536789 11.587499 C 112.290261 10.543402 113.178282 9.596179 114.163178 8.745832 C 114.550678 8.433679 113.700331 7.723263 113.350504 7.79861 C 113.00606 7.895485 112.521685 8.089235 112.155712 7.99236 C 111.692865 7.852429 111.784358 7.470311 111.940435 7.082811 C 112.171858 6.523089 112.580886 6.017186 113.022206 5.592013 C 113.915608 4.784721 115.067344 4.321874 116.267518 4.33802 C 116.886442 4.33802 116.192171 3.31545 115.750851 3.299304 C 113.931754 3.299304 112.171858 4.246527 111.224636 5.80729 C 110.724115 6.63611 110.568039 7.583332 111.289219 8.342186 C 111.552935 8.627429 111.84356 8.783506 112.171858 8.880381 C 111.364567 9.693054 110.670296 10.597221 110.051372 11.565971 C 109.314046 12.728471 108.210747 14.407638 108.926546 15.796179 C 109.529324 16.996353 110.939393 17.362325 112.171858 17.243922 C 113.775678 17.0717 115.30415 16.415103 116.617344 15.527082 C 117.004844 15.290277 116.154497 14.348436 115.729324 14.639061 Z M 132.671685 4.494096 C 130.427414 3.606075 127.935574 3.724478 125.562136 3.740624 C 122.892692 3.778297 120.228629 3.8967 117.580713 4.09045 C 116.945643 4.14427 117.634532 5.150693 118.086615 5.134547 C 119.900331 4.978471 121.692518 4.881596 123.490088 4.822395 C 121.676372 8.417533 120.476199 12.260242 119.959532 16.259027 C 119.900331 16.6842 120.906754 17.399999 120.982101 16.781075 C 121.50415 12.819964 122.72047 8.993402 124.555713 5.441318 C 124.652588 5.269096 124.496511 4.994617 124.281233 4.800867 C 124.733317 4.800867 125.174636 4.784721 125.637483 4.784721 C 127.914046 4.747047 130.502761 4.515624 132.687831 5.382117 C 133.462831 5.69427 133.150678 4.687846 132.671685 4.494096 Z M 140.260227 7.470311 C 139.350678 7.567186 138.441129 7.664061 137.536963 7.79861 C 138.155886 6.27552 138.828629 4.763193 139.565956 3.299304 C 139.759706 2.890277 138.807102 2.082985 138.559532 2.561978 C 137.666129 4.33802 136.874984 6.135589 136.164567 7.99236 C 134.770643 8.18611 133.398247 8.417533 132.009706 8.670485 C 132.5479 7.373436 133.12915 6.08177 133.731928 4.800867 C 133.925678 4.397221 132.973074 3.584547 132.74165 4.068922 C 131.972032 5.672742 131.277761 7.298089 130.615782 8.955728 C 129.151893 9.246353 127.70415 9.574652 126.251025 9.924478 C 125.76665 10.037499 126.520122 11.043922 126.98297 10.930902 C 128.027067 10.656422 129.076546 10.424999 130.136789 10.193575 C 129.324115 12.378645 128.586789 14.57986 127.973247 16.802603 C 127.876372 17.168575 128.608317 17.997395 128.92047 17.631422 C 129.189567 17.303124 129.383317 16.974825 129.496338 16.587325 C 129.534011 16.452777 129.480192 16.2967 129.383317 16.146006 C 129.996858 14.036284 130.718039 11.953471 131.525331 9.908332 C 132.919254 9.633853 134.307796 9.380902 135.717865 9.149478 C 135.141997 10.737152 134.636095 12.319443 134.173247 13.923263 C 134.054845 14.38611 135.03974 15.16111 135.179671 14.655207 C 135.717865 12.728471 136.336789 10.828645 137.068734 8.955728 C 138.306581 8.783506 139.544428 8.627429 140.782275 8.492881 C 141.417345 8.417533 140.701546 7.41111 140.260227 7.470311 Z M 158.00988 11.797395 C 157.972206 11.512152 157.638525 11.237672 157.390956 11.162325 C 156.562136 10.909374 155.711789 10.790971 154.85606 10.753297 C 155.012136 10.387325 155.189741 10.021353 155.345817 9.671527 C 155.905539 8.476735 156.481407 7.314235 157.024984 6.135589 C 157.503977 5.096874 158.338178 3.837499 157.853803 2.680381 C 157.756928 2.448957 157.353282 2.061457 157.04113 2.174478 C 155.281234 2.890277 153.758143 4.181943 152.331928 5.441318 C 150.959532 6.66302 149.640956 7.970832 148.440782 9.364756 C 147.864914 10.021353 147.32672 10.699478 146.799289 11.393749 C 144.275157 11.872742 141.777935 12.626214 139.404497 13.632638 C 138.898595 13.842534 139.711268 14.811284 140.136442 14.639061 C 141.971685 13.864061 143.866129 13.228992 145.798247 12.766145 C 144.506581 14.639061 143.365609 16.624999 142.396859 18.713193 C 142.203109 19.116839 143.150331 19.929513 143.381754 19.428992 C 144.5604 16.937152 145.97047 14.57986 147.633491 12.378645 C 147.983317 12.303297 148.327761 12.238714 148.699116 12.184895 C 150.146859 11.953471 151.632275 11.81354 153.101546 11.775867 C 152.714046 12.78229 152.348074 13.80486 152.100504 14.848957 C 151.842171 15.871527 151.804498 16.974825 152.983143 17.399999 C 153.252241 17.496874 153.370643 17.26545 153.33297 17.034027 C 153.295296 16.818749 153.123074 16.646527 152.94547 16.533506 C 152.94547 16.49045 152.929324 16.468922 152.929324 16.431249 C 152.966998 16.339756 152.94547 16.183679 152.966998 16.086804 C 153.020817 15.780034 153.123074 15.484027 153.198421 15.198784 C 153.370643 14.563714 153.564393 13.94479 153.779671 13.342013 C 153.973421 12.803818 154.183317 12.276388 154.414741 11.738193 C 155.518039 11.738193 156.615956 11.81354 157.660053 12.147221 C 157.934532 12.238714 158.063699 12.028818 158.00988 11.797395 Z M 153.548248 10.715624 C 153.33297 10.737152 153.123074 10.737152 152.929324 10.737152 C 151.497727 10.774825 150.071511 10.893228 148.634532 11.086978 C 148.871338 10.812499 149.102761 10.521874 149.334185 10.252777 C 150.496685 8.901908 151.750678 7.642533 153.0854 6.46927 C 154.242518 5.441318 155.43731 4.397221 156.79356 3.649131 C 156.755886 3.740624 156.718213 3.815971 156.691303 3.8967 C 156.540609 4.246527 156.384532 4.590971 156.228456 4.91927 C 155.959359 5.554339 155.668734 6.173263 155.383491 6.792186 C 154.743039 8.110763 154.10797 9.402429 153.548248 10.715624 Z M 153.548248 10.715624 " stroke="#002b64" stroke-width="1.449165" stroke-opacity="1" stroke-miterlimit="4"/></g><g fill="#3473c8" fill-opacity="1"><g transform="translate(25.163193, 17.782259)"><g><path d="M 11.722656 -1.683594 C 11.640625 -1.894531 11.429688 -2.046875 11.21875 -2.074219 C 9.84375 -2.242188 8.441406 -1.417969 7.332031 -0.699219 C 7.195312 -0.617188 7.054688 -0.53125 6.925781 -0.433594 C 6.507812 -0.5625 6.070312 -0.632812 5.691406 -0.714844 C 4.769531 -0.953125 3.8125 -1.148438 2.902344 -1.417969 C 2.3125 -1.585938 1.472656 -1.851562 1.21875 -2.46875 C 0.871094 -3.335938 1.65625 -4.207031 2.230469 -4.769531 C 3.503906 -6 5.089844 -6.914062 6.800781 -7.433594 C 7.265625 -7.570312 7.726562 -7.683594 8.203125 -7.753906 C 8.625 -7.824219 9.394531 -8.019531 9.660156 -7.570312 C 10.222656 -6.660156 9.394531 -5.539062 8.875 -4.851562 C 8.652344 -4.558594 9.324219 -3.925781 9.519531 -4.191406 C 10.066406 -4.9375 10.671875 -5.761719 10.558594 -6.746094 C 10.476562 -7.488281 10 -8.230469 9.253906 -8.484375 C 8.414062 -8.777344 7.292969 -8.441406 6.464844 -8.21875 C 5.523438 -7.9375 4.613281 -7.558594 3.757812 -7.054688 C 2.929688 -6.578125 2.160156 -5.988281 1.472656 -5.316406 C 0.855469 -4.699219 0.28125 -3.898438 0.421875 -2.988281 C 0.730469 -1.207031 2.875 -0.742188 4.320312 -0.394531 C 4.949219 -0.238281 5.582031 -0.0859375 6.210938 0.0703125 C 5.988281 0.238281 5.777344 0.40625 5.554688 0.589844 C 5.007812 1.050781 4.359375 1.570312 4.359375 2.355469 C 4.375 2.636719 4.726562 2.972656 5.007812 2.902344 C 5.847656 2.734375 6.648438 2.371094 7.347656 1.863281 C 7.921875 1.445312 8.554688 0.882812 7.980469 0.195312 C 7.9375 0.140625 7.878906 0.0859375 7.839844 0.0429688 C 7.878906 0.015625 7.9375 -0.0273438 7.980469 -0.0546875 C 9.003906 -0.714844 10.335938 -1.488281 11.597656 -1.316406 C 11.820312 -1.289062 11.792969 -1.570312 11.722656 -1.683594 Z M 7.363281 0.644531 C 6.816406 1.179688 6.183594 1.597656 5.484375 1.878906 C 5.734375 1.585938 6.070312 1.347656 6.324219 1.136719 C 6.660156 0.871094 6.996094 0.617188 7.347656 0.363281 C 7.570312 0.449219 7.515625 0.476562 7.363281 0.644531 Z M 7.363281 0.644531 "/></g></g></g><g fill="#3473c8" fill-opacity="1"><g transform="translate(36.713369, 17.782259)"><g><path d="M 9.421875 -6.339844 C 9.421875 -6.339844 9.421875 -6.351562 9.421875 -6.351562 C 9.421875 -6.351562 9.421875 -6.351562 9.410156 -6.351562 C 9.28125 -6.410156 9.15625 -6.410156 9.085938 -6.28125 C 7.53125 -3.617188 5.355469 -1.316406 2.804688 0.40625 C 2.917969 0.167969 3.042969 -0.0859375 3.167969 -0.324219 C 3.476562 -0.898438 3.785156 -1.472656 4.09375 -2.035156 C 4.710938 -3.167969 5.316406 -4.320312 5.722656 -5.539062 C 5.875 -6.03125 6.15625 -6.6875 6.03125 -7.207031 C 5.929688 -7.683594 5.46875 -8.0625 4.964844 -8.007812 C 4.460938 -7.9375 3.953125 -7.558594 3.535156 -7.277344 C 3.027344 -6.957031 2.566406 -6.578125 2.132812 -6.171875 C 1.640625 -5.691406 1.191406 -5.160156 0.828125 -4.585938 C 0.460938 -4.050781 0.238281 -3.464844 0.546875 -2.859375 C 0.644531 -2.691406 0.855469 -2.453125 1.066406 -2.480469 C 1.261719 -2.496094 1.277344 -2.679688 1.191406 -2.847656 C 0.882812 -3.433594 1.710938 -4.304688 2.0625 -4.738281 C 2.480469 -5.246094 2.957031 -5.722656 3.476562 -6.128906 C 3.980469 -6.519531 4.515625 -6.886719 5.105469 -7.152344 C 5.160156 -7.179688 5.230469 -7.207031 5.285156 -7.234375 C 5.257812 -7.066406 5.230469 -6.914062 5.1875 -6.757812 C 5.105469 -6.4375 5.007812 -6.113281 4.90625 -5.804688 C 4.429688 -4.5 3.757812 -3.28125 3.097656 -2.0625 C 2.75 -1.429688 2.410156 -0.800781 2.089844 -0.140625 C 1.835938 0.363281 1.597656 0.882812 1.992188 1.386719 C 2.074219 1.5 2.355469 1.765625 2.523438 1.667969 C 4.277344 0.589844 5.863281 -0.730469 7.222656 -2.230469 C 7.039062 -1.78125 6.84375 -1.332031 6.660156 -0.871094 C 6.367188 -0.125 6.03125 0.6875 6.015625 1.488281 C 6.015625 1.765625 6.070312 2.035156 6.171875 2.285156 C 6.238281 2.480469 6.410156 2.707031 6.632812 2.75 C 6.800781 2.777344 6.96875 2.691406 6.886719 2.496094 C 6.648438 1.851562 6.84375 1.164062 7.09375 0.433594 C 7.824219 -1.683594 8.863281 -3.714844 9.816406 -5.75 C 9.914062 -5.929688 9.675781 -6.238281 9.421875 -6.339844 Z M 9.421875 -6.339844 "/></g></g></g><g fill="#3473c8" fill-opacity="1"><g transform="translate(47.198248, 17.782259)"><g><path d="M 9.464844 -5.609375 C 9.253906 -3.617188 8.414062 -1.527344 6.96875 -0.0976562 C 6.785156 0.0859375 6.5625 0.195312 6.351562 0.363281 C 6.351562 0.363281 6.351562 0.378906 6.339844 0.394531 C 6.339844 0.378906 6.339844 0.363281 6.339844 0.335938 C 6.339844 0.253906 6.339844 0.167969 6.351562 0.0859375 C 6.378906 -0.378906 6.4375 -0.855469 6.492188 -1.316406 C 6.605469 -2.300781 6.757812 -3.28125 7.054688 -4.234375 C 7.164062 -4.445312 6.816406 -4.835938 6.546875 -4.867188 C 6.449219 -4.894531 6.367188 -4.867188 6.324219 -4.769531 C 5.652344 -3.503906 4.878906 -2.300781 4.039062 -1.164062 C 3.617188 -0.601562 3.183594 -0.0546875 2.71875 0.476562 C 2.523438 0.699219 2.3125 0.953125 2.089844 1.164062 C 2.203125 0.742188 2.355469 0.324219 2.523438 -0.0859375 C 2.832031 -0.839844 3.140625 -1.597656 3.449219 -2.355469 C 3.773438 -3.128906 4.082031 -3.898438 4.402344 -4.65625 C 4.570312 -5.0625 4.738281 -5.46875 4.894531 -5.890625 C 5.019531 -6.171875 5.144531 -6.449219 5.117188 -6.773438 C 5.0625 -7.277344 4.597656 -7.796875 4.066406 -7.753906 C 3.492188 -7.710938 2.832031 -7.179688 2.382812 -6.84375 C 1.375 -6.070312 0.265625 -4.894531 0.421875 -3.519531 C 0.433594 -3.308594 0.601562 -3.097656 0.800781 -3.015625 C 0.925781 -2.945312 1.191406 -2.917969 1.164062 -3.140625 C 1.023438 -4.347656 2.003906 -5.355469 2.875 -6.058594 C 3.085938 -6.238281 3.324219 -6.394531 3.546875 -6.546875 C 3.800781 -6.703125 4.109375 -6.800781 4.332031 -6.96875 C 4.347656 -6.96875 4.359375 -6.96875 4.375 -6.96875 C 4.359375 -6.957031 4.359375 -6.941406 4.359375 -6.925781 C 4.347656 -6.800781 4.289062 -6.6875 4.234375 -6.5625 C 4.109375 -6.238281 3.96875 -5.902344 3.828125 -5.566406 C 3.324219 -4.320312 2.804688 -3.070312 2.285156 -1.824219 C 1.808594 -0.644531 1.234375 0.53125 1.191406 1.808594 C 1.179688 2.074219 1.554688 2.441406 1.824219 2.355469 C 2.441406 2.1875 2.859375 1.695312 3.28125 1.234375 C 3.773438 0.671875 4.234375 0.0859375 4.683594 -0.519531 C 5.078125 -1.039062 5.441406 -1.570312 5.792969 -2.117188 C 5.75 -1.792969 5.722656 -1.472656 5.679688 -1.164062 C 5.636719 -0.660156 5.511719 -0.0976562 5.679688 0.394531 C 5.832031 0.8125 6.269531 1.234375 6.757812 1.136719 C 7.304688 1.007812 7.769531 0.421875 8.105469 0 C 8.484375 -0.492188 8.835938 -1.023438 9.113281 -1.570312 C 9.71875 -2.71875 10.066406 -3.953125 10.207031 -5.230469 C 10.25 -5.539062 9.519531 -6.058594 9.464844 -5.609375 Z M 9.464844 -5.609375 "/></g></g></g><g fill="#3473c8" fill-opacity="1"><g transform="translate(58.061581, 17.782259)"><g><path d="M 14.023438 -1.597656 C 13.996094 -1.808594 13.757812 -2.003906 13.574219 -2.0625 C 12.972656 -2.242188 12.355469 -2.328125 11.738281 -2.355469 C 11.847656 -2.621094 11.976562 -2.886719 12.085938 -3.140625 C 12.492188 -4.011719 12.914062 -4.851562 13.308594 -5.707031 C 13.65625 -6.464844 14.261719 -7.375 13.910156 -8.21875 C 13.839844 -8.386719 13.546875 -8.664062 13.320312 -8.582031 C 12.046875 -8.0625 10.9375 -7.125 9.898438 -6.210938 C 8.90625 -5.328125 7.949219 -4.375 7.082031 -3.367188 C 6.660156 -2.886719 6.269531 -2.398438 5.890625 -1.894531 C 4.050781 -1.542969 2.242188 -0.996094 0.519531 -0.265625 C 0.152344 -0.113281 0.742188 0.589844 1.050781 0.460938 C 2.382812 -0.0976562 3.757812 -0.5625 5.160156 -0.898438 C 4.222656 0.460938 3.394531 1.90625 2.691406 3.421875 C 2.550781 3.714844 3.238281 4.304688 3.40625 3.941406 C 4.261719 2.132812 5.285156 0.421875 6.492188 -1.179688 C 6.746094 -1.234375 6.996094 -1.277344 7.265625 -1.316406 C 8.316406 -1.488281 9.394531 -1.585938 10.460938 -1.613281 C 10.179688 -0.882812 9.914062 -0.140625 9.730469 0.617188 C 9.550781 1.359375 9.519531 2.160156 10.375 2.46875 C 10.574219 2.539062 10.65625 2.371094 10.628906 2.203125 C 10.601562 2.046875 10.476562 1.921875 10.347656 1.835938 C 10.347656 1.808594 10.335938 1.792969 10.335938 1.765625 C 10.363281 1.695312 10.347656 1.585938 10.363281 1.515625 C 10.40625 1.289062 10.476562 1.078125 10.53125 0.871094 C 10.65625 0.40625 10.796875 -0.0429688 10.953125 -0.476562 C 11.09375 -0.871094 11.246094 -1.246094 11.414062 -1.640625 C 12.214844 -1.640625 13.011719 -1.585938 13.769531 -1.347656 C 13.964844 -1.277344 14.066406 -1.429688 14.023438 -1.597656 Z M 10.785156 -2.382812 C 10.628906 -2.371094 10.476562 -2.371094 10.335938 -2.371094 C 9.296875 -2.339844 8.257812 -2.257812 7.222656 -2.117188 C 7.390625 -2.3125 7.558594 -2.523438 7.726562 -2.71875 C 8.566406 -3.703125 9.480469 -4.613281 10.445312 -5.46875 C 11.289062 -6.210938 12.15625 -6.96875 13.140625 -7.515625 C 13.109375 -7.445312 13.082031 -7.390625 13.070312 -7.332031 C 12.957031 -7.082031 12.84375 -6.828125 12.734375 -6.589844 C 12.535156 -6.128906 12.324219 -5.679688 12.117188 -5.230469 C 11.652344 -4.277344 11.191406 -3.335938 10.785156 -2.382812 Z M 10.785156 -2.382812 "/></g></g></g><g fill="#3473c8" fill-opacity="1"><g transform="translate(72.751575, 17.782259)"><g/></g></g><g fill="#3473c8" fill-opacity="1"><g transform="translate(78.274409, 17.782259)"><g><path d="M 11.722656 -1.683594 C 11.640625 -1.894531 11.429688 -2.046875 11.21875 -2.074219 C 9.84375 -2.242188 8.441406 -1.417969 7.332031 -0.699219 C 7.195312 -0.617188 7.054688 -0.53125 6.925781 -0.433594 C 6.507812 -0.5625 6.070312 -0.632812 5.691406 -0.714844 C 4.769531 -0.953125 3.8125 -1.148438 2.902344 -1.417969 C 2.3125 -1.585938 1.472656 -1.851562 1.21875 -2.46875 C 0.871094 -3.335938 1.65625 -4.207031 2.230469 -4.769531 C 3.503906 -6 5.089844 -6.914062 6.800781 -7.433594 C 7.265625 -7.570312 7.726562 -7.683594 8.203125 -7.753906 C 8.625 -7.824219 9.394531 -8.019531 9.660156 -7.570312 C 10.222656 -6.660156 9.394531 -5.539062 8.875 -4.851562 C 8.652344 -4.558594 9.324219 -3.925781 9.519531 -4.191406 C 10.066406 -4.9375 10.671875 -5.761719 10.558594 -6.746094 C 10.476562 -7.488281 10 -8.230469 9.253906 -8.484375 C 8.414062 -8.777344 7.292969 -8.441406 6.464844 -8.21875 C 5.523438 -7.9375 4.613281 -7.558594 3.757812 -7.054688 C 2.929688 -6.578125 2.160156 -5.988281 1.472656 -5.316406 C 0.855469 -4.699219 0.28125 -3.898438 0.421875 -2.988281 C 0.730469 -1.207031 2.875 -0.742188 4.320312 -0.394531 C 4.949219 -0.238281 5.582031 -0.0859375 6.210938 0.0703125 C 5.988281 0.238281 5.777344 0.40625 5.554688 0.589844 C 5.007812 1.050781 4.359375 1.570312 4.359375 2.355469 C 4.375 2.636719 4.726562 2.972656 5.007812 2.902344 C 5.847656 2.734375 6.648438 2.371094 7.347656 1.863281 C 7.921875 1.445312 8.554688 0.882812 7.980469 0.195312 C 7.9375 0.140625 7.878906 0.0859375 7.839844 0.0429688 C 7.878906 0.015625 7.9375 -0.0273438 7.980469 -0.0546875 C 9.003906 -0.714844 10.335938 -1.488281 11.597656 -1.316406 C 11.820312 -1.289062 11.792969 -1.570312 11.722656 -1.683594 Z M 7.363281 0.644531 C 6.816406 1.179688 6.183594 1.597656 5.484375 1.878906 C 5.734375 1.585938 6.070312 1.347656 6.324219 1.136719 C 6.660156 0.871094 6.996094 0.617188 7.347656 0.363281 C 7.570312 0.449219 7.515625 0.476562 7.363281 0.644531 Z M 7.363281 0.644531 "/></g></g></g><g fill="#3473c8" fill-opacity="1"><g transform="translate(89.824584, 17.782259)"><g><path d="M 5.511719 0.460938 C 4.699219 1.007812 3.785156 1.386719 2.820312 1.570312 C 2.441406 1.640625 2.046875 1.667969 1.667969 1.570312 C 1.207031 1.457031 1.078125 1.148438 1.179688 0.6875 C 1.375 -0.183594 1.949219 -1.039062 2.46875 -1.753906 C 3.015625 -2.511719 3.660156 -3.195312 4.375 -3.8125 C 4.65625 -4.039062 4.039062 -4.558594 3.785156 -4.5 C 3.535156 -4.429688 3.183594 -4.289062 2.917969 -4.359375 C 2.582031 -4.460938 2.648438 -4.738281 2.761719 -5.019531 C 2.929688 -5.425781 3.226562 -5.792969 3.546875 -6.101562 C 4.191406 -6.6875 5.035156 -7.023438 5.902344 -7.011719 C 6.351562 -7.011719 5.847656 -7.753906 5.523438 -7.769531 C 4.207031 -7.769531 2.929688 -7.082031 2.242188 -5.945312 C 1.878906 -5.34375 1.765625 -4.65625 2.285156 -4.109375 C 2.480469 -3.898438 2.691406 -3.785156 2.929688 -3.714844 C 2.339844 -3.128906 1.835938 -2.46875 1.386719 -1.765625 C 0.855469 -0.925781 0.0546875 0.292969 0.574219 1.304688 C 1.007812 2.171875 2.035156 2.441406 2.929688 2.355469 C 4.09375 2.230469 5.203125 1.753906 6.15625 1.109375 C 6.4375 0.941406 5.820312 0.253906 5.511719 0.460938 Z M 5.511719 0.460938 "/></g></g></g><g fill="#3473c8" fill-opacity="1"><g transform="translate(96.090323, 17.782259)"><g><path d="M 11.539062 -6.898438 C 9.914062 -7.542969 8.105469 -7.460938 6.378906 -7.445312 C 4.445312 -7.417969 2.511719 -7.332031 0.589844 -7.195312 C 0.125 -7.152344 0.632812 -6.421875 0.953125 -6.4375 C 2.273438 -6.546875 3.574219 -6.617188 4.878906 -6.660156 C 3.5625 -4.050781 2.691406 -1.261719 2.3125 1.640625 C 2.273438 1.949219 3 2.46875 3.058594 2.019531 C 3.433594 -0.855469 4.320312 -3.632812 5.652344 -6.210938 C 5.722656 -6.339844 5.609375 -6.535156 5.453125 -6.675781 C 5.777344 -6.675781 6.101562 -6.6875 6.4375 -6.6875 C 8.089844 -6.71875 9.96875 -6.886719 11.554688 -6.253906 C 12.117188 -6.03125 11.890625 -6.757812 11.539062 -6.898438 Z M 11.539062 -6.898438 "/></g></g></g><g fill="#3473c8" fill-opacity="1"><g transform="translate(102.454187, 17.782259)"><g><path d="M 10.683594 -4.738281 C 10.027344 -4.667969 9.367188 -4.597656 8.707031 -4.5 C 9.15625 -5.609375 9.648438 -6.703125 10.179688 -7.769531 C 10.320312 -8.0625 9.632812 -8.652344 9.453125 -8.300781 C 8.804688 -7.011719 8.230469 -5.707031 7.710938 -4.359375 C 6.703125 -4.222656 5.707031 -4.050781 4.699219 -3.871094 C 5.089844 -4.808594 5.511719 -5.75 5.945312 -6.675781 C 6.085938 -6.96875 5.398438 -7.558594 5.230469 -7.207031 C 4.667969 -6.042969 4.164062 -4.867188 3.6875 -3.660156 C 2.621094 -3.449219 1.570312 -3.210938 0.519531 -2.957031 C 0.167969 -2.875 0.714844 -2.144531 1.050781 -2.230469 C 1.808594 -2.425781 2.566406 -2.59375 3.335938 -2.761719 C 2.75 -1.179688 2.214844 0.421875 1.765625 2.035156 C 1.695312 2.300781 2.230469 2.902344 2.453125 2.636719 C 2.648438 2.398438 2.789062 2.160156 2.875 1.878906 C 2.902344 1.78125 2.859375 1.667969 2.789062 1.554688 C 3.238281 0.0273438 3.757812 -1.488281 4.347656 -2.972656 C 5.355469 -3.167969 6.367188 -3.351562 7.390625 -3.519531 C 6.96875 -2.371094 6.605469 -1.21875 6.269531 -0.0546875 C 6.183594 0.28125 6.898438 0.839844 6.996094 0.476562 C 7.390625 -0.925781 7.839844 -2.300781 8.371094 -3.660156 C 9.269531 -3.785156 10.167969 -3.898438 11.0625 -3.996094 C 11.527344 -4.050781 11.007812 -4.78125 10.683594 -4.738281 Z M 10.683594 -4.738281 "/></g></g></g><g fill="#3473c8" fill-opacity="1"><g transform="translate(111.999922, 17.782259)"><g><path d="M 14.023438 -1.597656 C 13.996094 -1.808594 13.757812 -2.003906 13.574219 -2.0625 C 12.972656 -2.242188 12.355469 -2.328125 11.738281 -2.355469 C 11.847656 -2.621094 11.976562 -2.886719 12.085938 -3.140625 C 12.492188 -4.011719 12.914062 -4.851562 13.308594 -5.707031 C 13.65625 -6.464844 14.261719 -7.375 13.910156 -8.21875 C 13.839844 -8.386719 13.546875 -8.664062 13.320312 -8.582031 C 12.046875 -8.0625 10.9375 -7.125 9.898438 -6.210938 C 8.90625 -5.328125 7.949219 -4.375 7.082031 -3.367188 C 6.660156 -2.886719 6.269531 -2.398438 5.890625 -1.894531 C 4.050781 -1.542969 2.242188 -0.996094 0.519531 -0.265625 C 0.152344 -0.113281 0.742188 0.589844 1.050781 0.460938 C 2.382812 -0.0976562 3.757812 -0.5625 5.160156 -0.898438 C 4.222656 0.460938 3.394531 1.90625 2.691406 3.421875 C 2.550781 3.714844 3.238281 4.304688 3.40625 3.941406 C 4.261719 2.132812 5.285156 0.421875 6.492188 -1.179688 C 6.746094 -1.234375 6.996094 -1.277344 7.265625 -1.316406 C 8.316406 -1.488281 9.394531 -1.585938 10.460938 -1.613281 C 10.179688 -0.882812 9.914062 -0.140625 9.730469 0.617188 C 9.550781 1.359375 9.519531 2.160156 10.375 2.46875 C 10.574219 2.539062 10.65625 2.371094 10.628906 2.203125 C 10.601562 2.046875 10.476562 1.921875 10.347656 1.835938 C 10.347656 1.808594 10.335938 1.792969 10.335938 1.765625 C 10.363281 1.695312 10.347656 1.585938 10.363281 1.515625 C 10.40625 1.289062 10.476562 1.078125 10.53125 0.871094 C 10.65625 0.40625 10.796875 -0.0429688 10.953125 -0.476562 C 11.09375 -0.871094 11.246094 -1.246094 11.414062 -1.640625 C 12.214844 -1.640625 13.011719 -1.585938 13.769531 -1.347656 C 13.964844 -1.277344 14.066406 -1.429688 14.023438 -1.597656 Z M 10.785156 -2.382812 C 10.628906 -2.371094 10.476562 -2.371094 10.335938 -2.371094 C 9.296875 -2.339844 8.257812 -2.257812 7.222656 -2.117188 C 7.390625 -2.3125 7.558594 -2.523438 7.726562 -2.71875 C 8.566406 -3.703125 9.480469 -4.613281 10.445312 -5.46875 C 11.289062 -6.210938 12.15625 -6.96875 13.140625 -7.515625 C 13.109375 -7.445312 13.082031 -7.390625 13.070312 -7.332031 C 12.957031 -7.082031 12.84375 -6.828125 12.734375 -6.589844 C 12.535156 -6.128906 12.324219 -5.679688 12.117188 -5.230469 C 11.652344 -4.277344 11.191406 -3.335938 10.785156 -2.382812 Z M 10.785156 -2.382812 "/></g></g></g><g clip-path="url(#fcf6386e3a)"><path fill="#3473c8" d="M 21.1875 16.050781 C 21.132812 16.167969 21.082031 16.285156 21.03125 16.402344 C 20.851562 16.421875 20.644531 16.441406 20.449219 16.46875 C 19.9375 16.542969 19.292969 16.746094 18.011719 17.34375 C 16.734375 17.941406 15.644531 19.328125 14.78125 20.585938 C 13.917969 21.847656 13.0625 24.652344 12.371094 24.757812 C 11.675781 24.863281 11.113281 23.753906 10.84375 23.308594 C 10.578125 22.859375 9.917969 21.460938 9.617188 20.757812 C 9.320312 20.054688 8.4375 17.542969 7.96875 15.894531 C 7.5 14.242188 7.3125 12.652344 7.269531 10.589844 C 7.226562 8.527344 8.367188 7.390625 9.332031 7.003906 C 9.347656 7 9.359375 6.996094 9.371094 6.992188 C 9.875 6.816406 10.746094 6.949219 11.769531 7.34375 C 12.78125 7.734375 13.933594 8.382812 15.019531 9.238281 C 15.019531 9.238281 13.148438 8.382812 11.847656 8.417969 C 10.546875 8.449219 9.640625 9.171875 9.171875 10.113281 C 8.699219 11.050781 8.59375 12.992188 8.765625 14.570312 C 8.933594 16.148438 9.617188 18.582031 10.042969 19.90625 C 10.472656 21.226562 11.230469 22.433594 11.707031 22.753906 C 12.1875 23.074219 12.476562 22.59375 13.101562 21.242188 C 13.726562 19.890625 15.363281 18.355469 16.1875 17.6875 C 16.953125 17.066406 19.363281 16.199219 21.1875 16.050781 " fill-opacity="1" fill-rule="nonzero"/></g><g clip-path="url(#762f0424eb)"><path fill="#3473c8" d="M 9.277344 6.734375 C 9.972656 6.4375 11.652344 6.578125 13.257812 7.488281 C 14.867188 8.398438 16.1875 9.179688 17.78125 8.738281 C 19.375 8.300781 21.253906 7.703125 22.402344 8.328125 C 23.554688 8.953125 23.542969 10.632812 23.085938 12.339844 C 22.632812 14.046875 20.78125 18.367188 19.84375 19.71875 C 18.90625 21.070312 18.605469 21.625 18.605469 21.625 C 24.765625 15.3125 25.40625 10.21875 25.171875 9.238281 C 24.9375 8.257812 24.664062 7.871094 24.183594 7.558594 C 23.699219 7.246094 22.460938 6.621094 20.753906 7.105469 C 19.046875 7.589844 18.394531 7.929688 17.9375 8.085938 C 17.484375 8.242188 16.324219 8.339844 15.699219 8.171875 C 15.070312 8 13.003906 6.707031 11.878906 6.492188 C 10.203125 6.1875 9.277344 6.734375 9.277344 6.734375 " fill-opacity="1" fill-rule="nonzero"/></g></svg>